# xmcd
#
# Track frame offsets: 
#        150
#        17155
#        34675
#        67010
#        84934
#        108043
#        125906
#        140563
#        156545
#        172908
#        213323
#        230301
#        261347
#        285251
#
# Disc length: 4341 seconds
#
# Revision: 0
# Processed by: cddbd v1.5.2PL0 Copyright (c) Steve Scherf et al.
# Submitted via: ExactAudioCopy v0.95b4
#
DISCID=c010f30e
DTITLE=Lou Reed - The Phantom Of Rock
DYEAR=1973
DGENRE=Avantgarde
TTITLE0=White Light/White Heat
TTITLE1=Wagon Wheel
TTITLE2=I'm Waiting For The Man
TTITLE3=Walk And Talk It
TTITLE4=Sweet Jane
TTITLE5=New Age
TTITLE6=Vicious
TTITLE7=I Can't Stand It
TTITLE8=Satellite Of Love
TTITLE9=Heroin
TTITLE10=I'm So Free
TTITLE11=Walk On The Wild Side
TTITLE12=Rock And Roll
TTITLE13=Sister Ray
EXTD=
EXTT0=
EXTT1=
EXTT2=
EXTT3=
EXTT4=
EXTT5=
EXTT6=
EXTT7=
EXTT8=
EXTT9=
EXTT10=
EXTT11=
EXTT12=
EXTT13=
PLAYORDER=
